<svg id="avatar" xmlns="http://www.w3.org/2000/svg" width="19.636" height="23.085" viewBox="0 0 19.636 23.085">
  <g id="Grupo_213" data-name="Grupo 213" transform="translate(0)">
    <path id="Caminho_1520" data-name="Caminho 1520" d="M141.987,12.439h.153a4.411,4.411,0,0,0,3.37-1.458c1.841-2.075,1.535-5.631,1.5-5.971A4.877,4.877,0,0,0,144.693.674,5.315,5.315,0,0,0,142.121,0h-.081a5.323,5.323,0,0,0-2.572.655,4.88,4.88,0,0,0-2.347,4.355c-.033.339-.339,3.9,1.5,5.971A4.394,4.394,0,0,0,141.987,12.439ZM138.4,5.13c0-.014,0-.029,0-.038.158-3.428,2.591-3.8,3.633-3.8h.057c1.291.029,3.485.555,3.633,3.8a.094.094,0,0,0,0,.038c0,.033.339,3.284-1.181,5a3.133,3.133,0,0,1-2.462,1.023h-.048a3.123,3.123,0,0,1-2.457-1.023C138.067,8.423,138.392,5.158,138.4,5.13Z" transform="translate(-132.253)" fill="#041e50"/>
    <path id="Caminho_1521" data-name="Caminho 1521" d="M55.708,265.189v-.014c0-.038,0-.077,0-.12-.029-.947-.091-3.16-2.166-3.867l-.048-.014a13.8,13.8,0,0,1-3.968-1.807.645.645,0,0,0-.741,1.056,14.89,14.89,0,0,0,4.365,1.993c1.114.4,1.238,1.587,1.272,2.677a.961.961,0,0,0,0,.119,8.677,8.677,0,0,1-.1,1.477,17.594,17.594,0,0,1-8.428,1.96,17.694,17.694,0,0,1-8.433-1.965,8.215,8.215,0,0,1-.1-1.477c0-.038,0-.077,0-.12.033-1.09.158-2.28,1.272-2.677A15.027,15.027,0,0,0,43,260.418a.645.645,0,1,0-.741-1.056,13.643,13.643,0,0,1-3.968,1.807l-.048.014c-2.075.712-2.137,2.926-2.166,3.868a.958.958,0,0,1,0,.119v.014a7.331,7.331,0,0,0,.244,2.165.613.613,0,0,0,.249.3,18.081,18.081,0,0,0,9.332,2.285,18.136,18.136,0,0,0,9.332-2.285.639.639,0,0,0,.249-.3A7.691,7.691,0,0,0,55.708,265.189Z" transform="translate(-36.073 -246.851)" fill="#041e50"/>
  </g>
</svg>
