<svg xmlns="http://www.w3.org/2000/svg" width="17.611" height="21.5" viewBox="0 0 17.611 21.5">
  <g id="lock" transform="translate(-4.75 0.25)">
    <path id="Caminho_39" data-name="Caminho 39" d="M19.778,7.822V5.639C19.778,2.53,16.986,0,13.556,0S7.333,2.53,7.333,5.639V7.822A2.814,2.814,0,0,0,5,10.589v7.6A2.814,2.814,0,0,0,7.811,21H19.3a2.815,2.815,0,0,0,2.811-2.811v-7.6A2.814,2.814,0,0,0,19.778,7.822ZM8.111,5.639c0-2.681,2.442-4.861,5.444-4.861S19,2.958,19,5.639V7.778H8.111Zm13.222,12.55A2.036,2.036,0,0,1,19.3,20.222H7.811a2.036,2.036,0,0,1-2.033-2.033v-7.6A2.036,2.036,0,0,1,7.811,8.556H19.3a2.036,2.036,0,0,1,2.034,2.033Z" transform="translate(0 0)" fill="#fff" stroke="#fff" stroke-width="0.5"/>
    <path id="Caminho_40" data-name="Caminho 40" d="M24.556,28A1.557,1.557,0,0,0,23,29.556v2.333a1.556,1.556,0,1,0,3.111,0V29.556A1.557,1.557,0,0,0,24.556,28Zm.778,3.889a.778.778,0,1,1-1.556,0V29.556a.778.778,0,0,1,1.556,0Z" transform="translate(-11 -17.111)" fill="#fff" stroke="#fff" stroke-width="0.5"/>
  </g>
</svg>