<svg xmlns="http://www.w3.org/2000/svg" width="24.418" height="17.768" viewBox="0 0 24.418 17.768">
  <path id="_002-delivery-truck" data-name="002-delivery-truck" d="M24.01,6.668l-3.8-3.8a.709.709,0,0,0-.5-.208h-3.09V2.609A2.612,2.612,0,0,0,14.009,0H2.609A2.612,2.612,0,0,0,0,2.609v9.5a2.612,2.612,0,0,0,2.609,2.609h.5a3.56,3.56,0,0,0,6.976,0H14.13a3.56,3.56,0,0,0,6.976,0h2.4a.709.709,0,0,0,.71-.71V7.169A.709.709,0,0,0,24.01,6.668Zm-4.6-2.589L21.8,6.46H16.618V4.079Zm-18,8.03v-9.5a1.192,1.192,0,0,1,1.19-1.19h11.4a1.192,1.192,0,0,1,1.19,1.19V11.4a3.558,3.558,0,0,0-1.069,1.9H10.087a3.56,3.56,0,0,0-6.976,0h-.5A1.192,1.192,0,0,1,1.419,12.109Zm5.18,4.04a2.141,2.141,0,1,1,2.14-2.141A2.143,2.143,0,0,1,6.6,16.149Zm11.02,0a2.141,2.141,0,1,1,2.14-2.141A2.143,2.143,0,0,1,17.619,16.149Zm3.488-2.85a3.557,3.557,0,0,0-4.489-2.706V7.879H22.8V13.3H21.107Zm0,0" transform="translate(0.1 0.1)" fill="#fff" stroke="#041e50" stroke-width="0.2"/>
</svg>
