<svg xmlns="http://www.w3.org/2000/svg" width="15.069" height="15.069" viewBox="0 0 15.069 15.069">
  <path id="Caminho_3" data-name="Caminho 3" d="M7.535,1.339a23.1,23.1,0,0,1,3.014.084,3.883,3.883,0,0,1,1.423.251A2.94,2.94,0,0,1,13.395,3.1a3.883,3.883,0,0,1,.251,1.423c0,.753.084,1,.084,3.014a23.1,23.1,0,0,1-.084,3.014,3.883,3.883,0,0,1-.251,1.423,2.94,2.94,0,0,1-1.423,1.423,3.883,3.883,0,0,1-1.423.251c-.753,0-1,.084-3.014.084a23.1,23.1,0,0,1-3.014-.084A3.883,3.883,0,0,1,3.1,13.395a2.94,2.94,0,0,1-1.423-1.423,3.883,3.883,0,0,1-.251-1.423c0-.753-.084-1-.084-3.014a23.1,23.1,0,0,1,.084-3.014A3.883,3.883,0,0,1,1.674,3.1,3.007,3.007,0,0,1,2.26,2.26,1.415,1.415,0,0,1,3.1,1.674a3.883,3.883,0,0,1,1.423-.251,23.1,23.1,0,0,1,3.014-.084M7.535,0a24.736,24.736,0,0,0-3.1.084A5.168,5.168,0,0,0,2.6.419a3.277,3.277,0,0,0-1.339.837A3.277,3.277,0,0,0,.419,2.6,3.814,3.814,0,0,0,.084,4.437,24.736,24.736,0,0,0,0,7.535a24.736,24.736,0,0,0,.084,3.1,5.168,5.168,0,0,0,.335,1.842,3.277,3.277,0,0,0,.837,1.339A3.277,3.277,0,0,0,2.6,14.65a5.168,5.168,0,0,0,1.842.335,24.736,24.736,0,0,0,3.1.084,24.736,24.736,0,0,0,3.1-.084,5.168,5.168,0,0,0,1.842-.335,3.512,3.512,0,0,0,2.177-2.177,5.168,5.168,0,0,0,.335-1.842c0-.837.084-1.088.084-3.1a24.736,24.736,0,0,0-.084-3.1A5.168,5.168,0,0,0,14.65,2.6a3.277,3.277,0,0,0-.837-1.339A3.277,3.277,0,0,0,12.474.419,5.168,5.168,0,0,0,10.632.084,24.736,24.736,0,0,0,7.535,0m0,3.684A3.789,3.789,0,0,0,3.684,7.535,3.851,3.851,0,1,0,7.535,3.684m0,6.362A2.467,2.467,0,0,1,5.023,7.535,2.467,2.467,0,0,1,7.535,5.023a2.467,2.467,0,0,1,2.512,2.512,2.467,2.467,0,0,1-2.512,2.512M11.553,2.6a.921.921,0,1,0,.921.921.929.929,0,0,0-.921-.921" fill="#fff" fill-rule="evenodd"/>
</svg>