<svg id="Símbolo_12_1" data-name="Símbolo 12 – 1" xmlns="http://www.w3.org/2000/svg" width="15.069" height="15.069" viewBox="0 0 15.069 15.069">
  <rect id="Retângulo_393" data-name="Retângulo 393" width="15.069" height="15.069" transform="translate(0)" fill="none"/>
  <path id="Caminho_2" data-name="Caminho 2" d="M42.772,14.223a8.712,8.712,0,0,0,8.79-8.79V5.014a6.805,6.805,0,0,0,1.507-1.591,6.95,6.95,0,0,1-1.758.5A3.257,3.257,0,0,0,52.65,2.251,7.679,7.679,0,0,1,50.725,3a2.99,2.99,0,0,0-2.26-1,3.145,3.145,0,0,0-3.1,3.1,1.632,1.632,0,0,0,.084.67A8.655,8.655,0,0,1,39.088,2.5a3.206,3.206,0,0,0-.419,1.591,3.326,3.326,0,0,0,1.339,2.6,2.822,2.822,0,0,1-1.423-.419h0A3.06,3.06,0,0,0,41.1,9.283a2.581,2.581,0,0,1-.837.084,1.425,1.425,0,0,1-.586-.084A3.172,3.172,0,0,0,42.6,11.46,6.321,6.321,0,0,1,38.753,12.8,2.318,2.318,0,0,1,38,12.716a7.9,7.9,0,0,0,4.772,1.507" transform="translate(-38 -0.117)" fill="#fff" fill-rule="evenodd"/>
</svg>