<svg xmlns="http://www.w3.org/2000/svg" width="21.792" height="21.792" viewBox="0 0 21.792 21.792">
                        <g id="Grupo_1517" data-name="Grupo 1517" transform="translate(0 0)">
                            <path id="Caminho_1636" data-name="Caminho 1636" d="M18.7,3.1A10.5,10.5,0,0,0,11.224,0h0A10.57,10.57,0,0,0,1.832,15.415L.056,20.489a.98.98,0,0,0,.921,1.3.988.988,0,0,0,.326-.056L6.377,19.96A10.568,10.568,0,0,0,18.7,3.1Zm-.9,14.041a9.293,9.293,0,0,1-10.93,1.635.984.984,0,0,0-.785-.061l-4.61,1.614,1.614-4.61a.985.985,0,0,0-.061-.785,9.291,9.291,0,0,1,8.2-13.651h0a9.29,9.29,0,0,1,6.569,15.859Z" transform="translate(0 0)" fill="#041e50" />
                            <path id="Caminho_1637" data-name="Caminho 1637" d="M137.079,120.454a1.248,1.248,0,0,0-1.763,0l-.532.532a7.739,7.739,0,0,1-3.108-3.108l.532-.532a1.248,1.248,0,0,0,0-1.763l-1.433-1.433a1.248,1.248,0,0,0-1.763,0l-1.146,1.146c-.657.657-.689,1.785-.092,3.178a13.951,13.951,0,0,0,6.414,6.414,4.628,4.628,0,0,0,1.784.425,1.9,1.9,0,0,0,1.394-.517l1.146-1.146h0a1.247,1.247,0,0,0,0-1.763Zm-.617,3.439c-.187.187-.764.253-1.771-.179a12.707,12.707,0,0,1-5.743-5.743c-.432-1.007-.366-1.584-.179-1.771l1.124-1.124,1.389,1.389-.665.666a.975.975,0,0,0-.181,1.136,9.017,9.017,0,0,0,3.96,3.96.975.975,0,0,0,1.136-.181l.666-.666,1.389,1.389Z" transform="translate(-121.927 -108.943)" fill="#041e50" />
                        </g>
                    </svg>