<svg id="surface1" xmlns="http://www.w3.org/2000/svg" width="132.359" height="51.54" viewBox="0 0 132.359 51.54">
  <path id="Caminho_1589" data-name="Caminho 1589" d="M50.245.883H60.827V13.627h1.121L75.29.883H89.7L71,17.838l20.889,17.72H77.2L61.947,22.241H60.827V35.558H50.245ZM18.912,21.94H30.806L24.763,8.923Zm0,0H30.806L24.763,8.923Zm0,0H30.806L24.763,8.923ZM18.721.883H30.833L47.511,35.531H37.176l-2.9-6.125H15.413l-2.734,6.125H2.289Zm0,0H30.833L47.511,35.531H37.176l-2.9-6.125H15.413l-2.734,6.125H2.289Zm0,0H30.833L47.511,35.531H37.176l-2.9-6.125H15.413l-2.734,6.125H2.289ZM127.785,10.4l1.367-8.669A94.387,94.387,0,0,0,114.5.008a71.974,71.974,0,0,0-12.386.738A16.866,16.866,0,0,0,95,3.536a12.167,12.167,0,0,0-4.21,5.579A25.14,25.14,0,0,0,89.4,18.193a24.622,24.622,0,0,0,1.394,9.024,12.218,12.218,0,0,0,4.183,5.5,16.909,16.909,0,0,0,7.081,2.707,66.178,66.178,0,0,0,10.307.738,61.792,61.792,0,0,0,17.307-2.735V17.346H113.677v6.563h6.945v2.844a49.588,49.588,0,0,1-8.257.93c-12.358.328-13.206-4.485-13.206-9.6,0-4.54,1.586-8.286,7.3-9.024s12.987-.355,21.326,1.34" transform="translate(-2.289 0.012)" fill="#b2b2b2"/>
  <path id="Caminho_1590" data-name="Caminho 1590" d="M812.237,607.559v4.43h-5.277v-4.43h-2.133v9.981h2.133v-4.649h5.277v3.582a1.243,1.243,0,0,0,.137.547.942.942,0,0,0,.328.328,1.211,1.211,0,0,0,.437.164,2.07,2.07,0,0,0,.41.027h.82v-9.981Z" transform="translate(-751.595 -567.258)" fill="#b2b2b2"/>
  <path id="Caminho_1591" data-name="Caminho 1591" d="M1367.323,617.127v-9.981h-2.078l-4.183,7.383-4.266-7.383h-2.105v9.981h1.094v-7.739l4.484,7.739h.547l4.375-7.684v6.59a1.243,1.243,0,0,0,.137.547.943.943,0,0,0,.328.328,1.21,1.21,0,0,0,.437.164,2.1,2.1,0,0,0,.41.027Z" transform="translate(-1264.985 -566.872)" fill="#b2b2b2"/>
  <path id="Caminho_1592" data-name="Caminho 1592" d="M1586.23,614.048l-5.331-10.2h-.629l-5.468,10.2h1.258l1.7-3.172h3.883l-.547-1.012H1578.3l1.8-3.364,3.527,6.755a1.233,1.233,0,0,0,.52.6,1.365,1.365,0,0,0,.793.191Z" transform="translate(-1470.494 -563.793)" fill="#b2b2b2"/>
  <path id="Caminho_1593" data-name="Caminho 1593" d="M1785.909,607.544a.467.467,0,0,0-.191.027.313.313,0,0,0-.219.082.517.517,0,0,0-.246.438v6.426l-7.109-6.973h-1.367v9.981h1.258v-7.52l7.218,7.274a1.523,1.523,0,0,0,1.094.246h.137v-9.981Z" transform="translate(-1659.073 -567.243)" fill="#b2b2b2"/>
  <path id="Caminho_1594" data-name="Caminho 1594" d="M984.87,604.262h-.629l-5.468,10.2h1.258l4.047-7.548,1.723,3.336h-2.816l-.547,1.012h3.91l1.231,2.379a1.235,1.235,0,0,0,.519.6,1.368,1.368,0,0,0,.793.192H990.2Z" transform="translate(-914.002 -564.18)" fill="#b2b2b2"/>
  <path id="Caminho_1595" data-name="Caminho 1595" d="M1187.941,616.716l-3.144-3.746H1183.7v4.567h-2.133v-9.981h3.91a7.071,7.071,0,0,1,2.679.492,2.279,2.279,0,0,1,1.5,2.16c0,.93-.574,2-2.6,2.543l4.074,4.758H1189.5a2.346,2.346,0,0,1-.738-.137,2.26,2.26,0,0,1-.82-.656m-4.266-8.286V612.2h.984a3.488,3.488,0,0,0,1.613-.356,1.854,1.854,0,0,0,1.094-1.586,1.876,1.876,0,0,0-1.176-1.668,2.5,2.5,0,0,0-1.094-.191h-1.422Z" transform="translate(-1103.347 -567.254)" fill="#b2b2b2"/>
  <path id="Caminho_1596" data-name="Caminho 1596" d="M677.461,687.539h.328v1.914a1.427,1.427,0,0,1,1.066-.465,1.315,1.315,0,0,1,1.34,1.422,1.537,1.537,0,0,1-1.668,1.614,2.859,2.859,0,0,1-1.066-.219Zm.328,4.047a2.34,2.34,0,0,0,.738.137,1.285,1.285,0,0,0,1.34-1.231v-.055a1.076,1.076,0,0,0-1.039-1.176,1.318,1.318,0,0,0-1.039.574Z" transform="translate(-632.676 -641.933)" fill="#b2b2b2"/>
  <path id="Caminho_1597" data-name="Caminho 1597" d="M725.41,715.028h-.328l1.039-2.078-1.257-2.325h.328l1.094,2.024,1.039-2.024h.328Z" transform="translate(-676.934 -663.488)" fill="#b2b2b2"/>
  <path id="Caminho_1598" data-name="Caminho 1598" d="M1937.934,43.607a2.048,2.048,0,0,1-1.449-.6,2.115,2.115,0,0,1-.6-1.477,2.051,2.051,0,1,1,3.5,1.449,2.075,2.075,0,0,1-1.449.629m0-3.774a1.682,1.682,0,1,0,1.7,1.668,1.7,1.7,0,0,0-.492-1.176,1.512,1.512,0,0,0-1.2-.492m.52,2.844V42.65l-.027-.109v-.191c0-.246-.055-.41-.191-.465a1.094,1.094,0,0,0-.41-.082h-.273v.875h-.465v-2.3h.82a2.321,2.321,0,0,1,.629.082.591.591,0,0,1,.355.6.46.46,0,0,1-.246.465l-.164.082a.44.44,0,0,1,.246.191.578.578,0,0,1,.137.355v.328c0,.055,0,.082.027.109l.027.082Zm-.6-1.231a1.591,1.591,0,0,0,.355-.055.3.3,0,0,0,.191-.3.441.441,0,0,0-.137-.3,1.276,1.276,0,0,0-.465-.082h-.3v.711h.355Z" transform="translate(-1807.625 -36.86)" fill="#b2b2b2"/>
</svg>