<svg id="Componente_24_23" data-name="Componente 24 – 23" xmlns="http://www.w3.org/2000/svg" width="201.237" height="33.395" viewBox="0 0 201.237 33.395">
  <path id="Caminho_1622" data-name="Caminho 1622" d="M-698.049-4501.747c.4.1.806.167,1.191.3a5.159,5.159,0,0,1,3.4,5.438,5.183,5.183,0,0,1-4.539,4.54,5.142,5.142,0,0,1-5.728-4.614,5.121,5.121,0,0,1,4.419-5.613.958.958,0,0,0,.159-.052Zm-5.269,5.147a4.735,4.735,0,0,0,4.708,4.731,4.74,4.74,0,0,0,4.754-4.717,4.727,4.727,0,0,0-4.711-4.725A4.723,4.723,0,0,0-703.318-4496.6Z" transform="translate(894.657 4501.747)" fill="#b2b2b2"/>
  <path id="Caminho_1623" data-name="Caminho 1623" d="M-1268.884-4478.977v-8.1h14.6a3.683,3.683,0,0,0,.4-.009.652.652,0,0,0,.639-.655q.023-1.408,0-2.816a.785.785,0,0,0-.7-.722,3.561,3.561,0,0,0-.4-.011h-14.524v-7.792h.308q8.95,0,17.9.009a8.794,8.794,0,0,1,1.909.206,4.309,4.309,0,0,1,3.511,3.777,8.621,8.621,0,0,1,.115,1.286c.012,1.8.018,3.6,0,5.4a6.507,6.507,0,0,1-.748,3.095,4.7,4.7,0,0,1-2.359,2.14c-.141.06-.347.22-.339.317a.653.653,0,0,0,.292.434,6.168,6.168,0,0,1,2.5,2.428,5.888,5.888,0,0,1,.649,2.712q.029,2.844,0,5.689a5.49,5.49,0,0,1-.756,2.854,4.9,4.9,0,0,1-3.741,2.282,7.7,7.7,0,0,1-1.061.06q-14.978,0-29.957,0h-.379v-32.675h7.776v23.565c0,.969.167,1.135,1.138,1.135h17.756c.115,0,.23,0,.345,0a.765.765,0,0,0,.771-.769q.019-1.522,0-3.046a.827.827,0,0,0-.771-.789c-.1-.009-.211,0-.316,0h-14.555Z" transform="translate(1320.46 4499.782)" fill="#b2b2b2"/>
  <path id="Caminho_1624" data-name="Caminho 1624" d="M-989.81-4476.453h7.757c0,.374,0,.735,0,1.1,0,.675.311.992.977.992q8.187,0,16.373,0c.729,0,.945-.218.946-.941q0-1.206,0-2.414c0-.667-.313-.977-.99-.977q-9.726,0-19.452,0a5.616,5.616,0,0,1-5.348-3.721,5.809,5.809,0,0,1-.281-1.744c-.027-3.161-.024-6.321-.009-9.482A5.287,5.287,0,0,1-985.3-4499a5.829,5.829,0,0,1,1-.077q11.438-.007,22.876.01a7.323,7.323,0,0,1,2.093.3,4.551,4.551,0,0,1,3.284,4.024,9,9,0,0,1,.076,1.26c.01,1.264,0,2.528,0,3.793v.333h-7.79c0-.325,0-.646,0-.968a.856.856,0,0,0-.949-.965q-8.2,0-16.4,0c-.707,0-.944.243-.946.955,0,.833,0,1.667,0,2.5,0,.786.291,1.08,1.071,1.08q9.7,0,19.394,0a6.469,6.469,0,0,1,2.936.569,4.709,4.709,0,0,1,2.606,3.786,8.408,8.408,0,0,1,.076,1.23c.006,3.056,0,6.111,0,9.167a6.994,6.994,0,0,1-.326,2.32,4.624,4.624,0,0,1-3.781,3.174,7.134,7.134,0,0,1-1.314.116q-11.568.01-23.135,0a5.108,5.108,0,0,1-4.2-1.9,4.918,4.918,0,0,1-1.093-2.97c-.052-1.694-.022-3.39-.026-5.085A.511.511,0,0,1-989.81-4476.453Z" transform="translate(1105.683 4499.782)" fill="#b2b2b2"/>
  <path id="Caminho_1625" data-name="Caminho 1625" d="M-845.461-4476.45h7.758c0,.385,0,.755,0,1.126a.851.851,0,0,0,.952.961q8.215,0,16.431,0c.691,0,.911-.225.912-.915,0-.766-.029-1.534.009-2.3s-.344-1.13-1.114-1.128q-9.683.026-19.366.009a5.577,5.577,0,0,1-5.279-3.6,5.681,5.681,0,0,1-.316-1.795q-.045-4.813-.01-9.626a5.29,5.29,0,0,1,5.283-5.357c.22-.006.441,0,.662,0h22.329a6.769,6.769,0,0,1,2.511.409,4.644,4.644,0,0,1,3,3.894,9.1,9.1,0,0,1,.085,1.316c.011,1.255,0,2.509,0,3.764v.337h-7.8c0-.311,0-.632,0-.952a.859.859,0,0,0-.964-.977q-8.187,0-16.373,0c-.723,0-.956.239-.958.972q0,1.264,0,2.529c0,.723.31,1.034,1.032,1.034q9.7,0,19.395,0a6.848,6.848,0,0,1,2.541.395,4.708,4.708,0,0,1,3.035,3.935,7.79,7.79,0,0,1,.084,1.2q.01,4.626,0,9.252a6.816,6.816,0,0,1-.342,2.318,4.668,4.668,0,0,1-3.781,3.143,7.108,7.108,0,0,1-1.343.118q-11.568.01-23.135,0a5.026,5.026,0,0,1-4.235-1.989,5.019,5.019,0,0,1-1.017-2.94c-.045-1.675-.018-3.352-.02-5.028A.462.462,0,0,1-845.461-4476.45Z" transform="translate(999.21 4499.78)" fill="#b2b2b2"/>
  <path id="Caminho_1626" data-name="Caminho 1626" d="M-1113.769-4466.392h-11.165a5.44,5.44,0,0,1-5.36-4.933c-.024-.286-.036-.574-.036-.86q0-10.661,0-21.322a5.4,5.4,0,0,1,3.829-5.316,5.9,5.9,0,0,1,1.668-.25q11.093-.024,22.187-.009a5.461,5.461,0,0,1,5.489,4.743,5.872,5.872,0,0,1,.042.86c0,7.155-.018,14.311.011,21.466a5.552,5.552,0,0,1-4.5,5.535,5.22,5.22,0,0,1-.914.084Q-1108.143-4466.387-1113.769-4466.392Zm.054-7.975h7.769c.755,0,1.041-.287,1.041-1.039v-14.826c0-.779-.277-1.061-1.047-1.061h-15.538c-.763,0-1.037.274-1.037,1.038q0,7.427,0,14.855c0,.758.278,1.033,1.043,1.033Z" transform="translate(1209.306 4499.784)" fill="#b2b2b2"/>
  <path id="Caminho_1627" data-name="Caminho 1627" d="M-1398.607-4499.013v32.651h-32.7v-32.657h7.066v.368c0,5.287-.018,10.574.012,15.861a9.2,9.2,0,0,0,5.915,8.509,9.345,9.345,0,0,0,12.447-6.9,9.384,9.384,0,0,0-7.355-10.9,10.006,10.006,0,0,0-1.827-.174c-2.139-.021-4.278-.008-6.417-.008h-.332v-6.75Zm-20.928,4.6h.342c1.3,0,2.609-.022,3.913.009a14.917,14.917,0,0,1,2.288.192,11.422,11.422,0,0,1,9.126,13.571,11.07,11.07,0,0,1-5.375,7.5,11.534,11.534,0,0,1-6.849,1.526,10.509,10.509,0,0,1-5.864-2.183,11.373,11.373,0,0,1-4.561-9.3c-.031-4.329-.007-8.659-.007-12.988v-.382h-2.248v27.579h27.577v-27.577h-18.341Z" transform="translate(1431.307 4499.734)" fill="#b2b2b2"/>
  <path id="Caminho_1628" data-name="Caminho 1628" d="M-689.041-4490.713a1.155,1.155,0,0,1,.718,1.254c0,.22.024.44.036.66.022.373-.068.777.358,1.034l-.055.075c-.308,0-.617.008-.924-.009-.046,0-.115-.121-.122-.191-.045-.466-.09-.933-.109-1.4-.029-.687-.285-1-.967-1.028-.706-.031-1.414-.007-2.148-.007v2.619h-.829v-6.15c.248,0,.485,0,.721,0,.881.013,1.765-.007,2.643.053a1.43,1.43,0,0,1,1.449,1.133,1.593,1.593,0,0,1-.7,1.9A.73.73,0,0,0-689.041-4490.713Zm-3.2-.33c.447,0,.859.007,1.271,0a9.228,9.228,0,0,0,1.146-.059.838.838,0,0,0,.748-.85c.058-.783-.257-1.157-1.04-1.183-.661-.021-1.323-.007-1.985-.005a.507.507,0,0,0-.14.04Z" transform="translate(886.788 4495.929)" fill="#b2b2b2"/>
</svg>