<svg id="Componente_23_22" data-name="Componente 23 – 22" xmlns="http://www.w3.org/2000/svg" width="210.856" height="32.368" viewBox="0 0 210.856 32.368">
  <path id="Caminho_1599" data-name="Caminho 1599" d="M-488.655-1164.182a1.291,1.291,0,0,1-1.478.989c-.863,0-1.727,0-2.59,0a1.234,1.234,0,0,1-1.419-1.362,1.567,1.567,0,0,0-.023-.239c-.1-.5-.386-.611-.789-.3a12.955,12.955,0,0,1-5.116,2.438,12.548,12.548,0,0,1-14.47-7.593,11.032,11.032,0,0,1,3.649-12.827,13.673,13.673,0,0,1,8.206-3.034,11.96,11.96,0,0,1,7.545,2.29c.208.149.4.434.709.264s.282-.49.283-.778q.006-3.939,0-7.878c0-.371,0-.742,0-1.113a1.183,1.183,0,0,1,1.245-1.284q1.505-.03,3.012,0a1.232,1.232,0,0,1,1.235.951Zm-5.631-10.159c.024-4.347-3.209-7.507-7.72-7.546a7.433,7.433,0,0,0-7.619,7.383,7.535,7.535,0,0,0,7.566,7.875A7.471,7.471,0,0,0-494.286-1174.342Z" transform="translate(699.511 1194.626)" fill="#b2b2b2"/>
  <path id="Caminho_1600" data-name="Caminho 1600" d="M-866.772-1115.624c-.554-.08-1.111-.142-1.661-.243a8.826,8.826,0,0,1-5.693-3.352,6.878,6.878,0,0,1,4.33-10.8,71.947,71.947,0,0,1,7.808-.834q1.819-.107,3.637-.22a1.31,1.31,0,0,0,1.037-2.04,4.41,4.41,0,0,0-3.339-2.207,13.767,13.767,0,0,0-5.054.2,4.246,4.246,0,0,0-2.613,1.893,1.976,1.976,0,0,1-1.793.966c-1.164-.018-2.33-.005-3.494-.027a1.257,1.257,0,0,1-.616-.179.666.666,0,0,1-.262-.934,9.579,9.579,0,0,1,6.777-5.841,17.338,17.338,0,0,1,10.619.587,8.075,8.075,0,0,1,4.561,3.979,7.777,7.777,0,0,1,.813,3.453c.016,4.461.009,8.923,0,13.384a1.168,1.168,0,0,1-1.226,1.268c-.813.016-1.626,0-2.439-.014a1.355,1.355,0,0,1-1.316-.923,4.629,4.629,0,0,0-.179-.445.575.575,0,0,0-.949-.2,11.149,11.149,0,0,1-5.3,2.277c-.591.107-1.19.164-1.785.244Zm6.342-11.187-.008-.1c-1.616.154-3.235.281-4.846.472a9.61,9.61,0,0,0-3.2.894,2.4,2.4,0,0,0-1.256,2.832,2.679,2.679,0,0,0,1.792,1.843,9.293,9.293,0,0,0,7.907-.478,5.04,5.04,0,0,0,2.8-4.615.7.7,0,0,0-.471-.725,1.589,1.589,0,0,0-.553-.117C-858.985-1126.819-859.707-1126.811-860.43-1126.811Z" transform="translate(1005.869 1147.992)" fill="#b2b2b2"/>
  <path id="Caminho_1601" data-name="Caminho 1601" d="M-1333.312-1178.91q0-7.053,0-14.105c0-.12,0-.241,0-.361a1.18,1.18,0,0,1,1.178-1.227c.08-.006.161,0,.241,0q9.006,0,18.013,0a9.021,9.021,0,0,1,6.319,2.392,8.018,8.018,0,0,1,2.585,6.488,8.556,8.556,0,0,1-3.651,6.612,3.617,3.617,0,0,0-.388.328.209.209,0,0,0,.028.355,4.724,4.724,0,0,1,1.713,2.979q.784,3.655,1.563,7.311a19.786,19.786,0,0,0,1.3,4.145.538.538,0,0,1-.5.793c-1.245.008-2.49.021-3.735,0a1.907,1.907,0,0,1-2.009-1.551,25.053,25.053,0,0,1-.775-4.311,17.178,17.178,0,0,0-1.141-5.018c-.228-.51-.517-.993-.779-1.488a3.016,3.016,0,0,0-2.319-1.585,11.707,11.707,0,0,0-1.825-.166c-3.012-.016-6.024-.008-9.037-.007a1.267,1.267,0,0,0-1.457,1.451q0,5.549,0,11.1c0,.12,0,.241,0,.361a1.151,1.151,0,0,1-1.187,1.209q-1.475.034-2.952,0a1.154,1.154,0,0,1-1.192-1.206c-.006-.12,0-.24,0-.361v-14.135Zm12.3-2.581v0c1.737,0,3.473.015,5.209-.009a7.745,7.745,0,0,0,1.636-.194,4.112,4.112,0,0,0,3.482-4.175,4.048,4.048,0,0,0-2.73-4.135,6.34,6.34,0,0,0-2.32-.447q-5.405,0-10.81,0a1.257,1.257,0,0,0-1.437,1.438q0,3.052,0,6.1a1.262,1.262,0,0,0,1.428,1.422Z" transform="translate(1395.335 1194.612)" fill="#b2b2b2"/>
  <path id="Caminho_1602" data-name="Caminho 1602" d="M-1729.493-1174.647v3.1h37.656v2.3h-40.029v-7.719h.419q15.107,0,30.215,0a7.946,7.946,0,0,0,5.058-1.621,7.6,7.6,0,0,0,.313-11.732,7.968,7.968,0,0,0-5.44-1.984q-17.5.01-35,0h-9.623v29.078h-2.524V-1194.6h.315q23.452,0,46.9,0a10.053,10.053,0,0,1,7.75,3.258,9.483,9.483,0,0,1,2.543,7.894,9.528,9.528,0,0,1-6.59,8.236,10.417,10.417,0,0,1-3.64.563h-28.323Z" transform="translate(1748.453 1194.604)" fill="#b2b2b2"/>
  <path id="Caminho_1603" data-name="Caminho 1603" d="M-1656.4-1130.785v2.282h-.324q-18.631,0-37.262,0a10.113,10.113,0,0,1-7.062-2.578,9.693,9.693,0,0,1-3.144-6.059,1.972,1.972,0,0,0-.1-.41v9.029h-2.505v-25.3h43.523v7.7h-.421q-15.076,0-30.153,0a8.018,8.018,0,0,0-5.042,1.581,7.621,7.621,0,0,0-.422,11.735,7.6,7.6,0,0,0,5.085,2.021c.181,0,.362,0,.542,0h37.29Zm-9.237-20.748h-38.628v12.087c.015-.073.052-.213.071-.355a9.668,9.668,0,0,1,3.9-6.664,10.206,10.206,0,0,1,6.291-1.96q13.992.007,27.985,0h.385Z" transform="translate(1713.026 1159.916)" fill="#b2b2b2"/>
  <path id="Caminho_1604" data-name="Caminho 1604" d="M-1121.835-1115.629a18.143,18.143,0,0,1-7.682-1.669,11.315,11.315,0,0,1-6.549-8.819,10.836,10.836,0,0,1,2.167-8.3,12.543,12.543,0,0,1,7.619-4.8,18.552,18.552,0,0,1,10.442.494,11.858,11.858,0,0,1,7.634,7.471,11.266,11.266,0,0,1-3.827,12.6,14,14,0,0,1-6.632,2.716C-1119.713-1115.782-1120.777-1115.728-1121.835-1115.629Zm0-4.35c.43-.032.862-.045,1.29-.1a7.917,7.917,0,0,0,5.506-3.044,7.207,7.207,0,0,0,1.624-4.855,7.322,7.322,0,0,0-1.971-4.638,8.355,8.355,0,0,0-6.558-2.75,8.3,8.3,0,0,0-5.974,2.278,7.31,7.31,0,0,0-2.432,5.594,7.311,7.311,0,0,0,2.738,5.543A8.768,8.768,0,0,0-1121.834-1119.979Z" transform="translate(1227.657 1147.934)" fill="#b2b2b2"/>
  <path id="Caminho_1605" data-name="Caminho 1605" d="M-693.524-1127.878q0-5.022,0-10.045c0-1.039.443-1.481,1.483-1.481.873,0,1.747,0,2.621,0a1.225,1.225,0,0,1,1.385,1.363c0,.381,0,.762.012,1.143.011.353.17.473.509.37a1.244,1.244,0,0,0,.391-.214,13.221,13.221,0,0,1,6.828-2.671,11.69,11.69,0,0,1,3.478,0,9.433,9.433,0,0,1,7.258,7.281,11.288,11.288,0,0,1,.178,1.941c.015,4.12.007,8.24.007,12.36,0,1.068-.425,1.49-1.5,1.489q-1.31,0-2.62-.011a1.206,1.206,0,0,1-1.368-1.368q-.006-6.21-.005-12.421a6.38,6.38,0,0,0-.3-2.1,3.987,3.987,0,0,0-3.222-2.746,8.684,8.684,0,0,0-5.523.664,7.176,7.176,0,0,0-4,5.455,8.158,8.158,0,0,0-.119,1.495c-.011,3.2-.006,6.4-.011,9.594a2.326,2.326,0,0,1-.067.593,1.046,1.046,0,0,1-1.022.826c-1.054.022-2.109.036-3.162.01a1.182,1.182,0,0,1-1.23-1.328q0-5.1,0-10.2Z" transform="translate(851.121 1147.775)" fill="#b2b2b2"/>
  <path id="Caminho_1606" data-name="Caminho 1606" d="M-925.507-1178.919q0,7.112,0,14.224a3.02,3.02,0,0,1-.014.42,1.143,1.143,0,0,1-1.2,1.074q-1.761.03-3.524,0a1.181,1.181,0,0,1-1.229-1.211c-.006-.09,0-.18,0-.271q0-14.224,0-28.448a2.527,2.527,0,0,1,.058-.565,1.1,1.1,0,0,1,1.114-.916q1.807-.021,3.614,0a1.161,1.161,0,0,1,1.174,1.167c.008.12,0,.241,0,.361Q-925.507-1186-925.507-1178.919Z" transform="translate(1053.523 1194.622)" fill="#b2b2b2"/>
</svg>