<svg id="Componente_25_24" data-name="Componente 25 – 24" xmlns="http://www.w3.org/2000/svg" width="222.436" height="39.323" viewBox="0 0 222.436 39.323">
  <path id="Caminho_1615" data-name="Caminho 1615" d="M1483.333-833.675l2.731-22.127h23.7l.568-4.164h-23.77l.97-7.7h.822c9.511,0,19.028.193,28.532-.072a8.436,8.436,0,0,1,7.517,12.516,12.025,12.025,0,0,1-7.368,6.007c-.51.171-1.019.346-1.635.555l12.521,6.368c1.047-8.487,2.084-16.9,3.126-25.342h36.634a4.434,4.434,0,0,1,0,.521c-.276,2.281-.551,4.562-.855,6.84a.623.623,0,0,1-.428.392,7.284,7.284,0,0,1-1.138.019h-18.238l-.558,4.075h19.814c-.146,1.232-.279,2.4-.422,3.56-.18,1.468-.4,2.931-.535,4.4-.052.564-.229.723-.792.721-6.147-.019-12.295,0-18.442-.029-.659,0-.9.165-.952.828-.1,1.212-.307,2.415-.48,3.7h20c-.207,1.728-.4,3.371-.6,5.014-.138,1.13-.317,2.257-.412,3.391-.041.485-.223.578-.664.576-4.726-.014-9.451-.008-14.177-.008h-21.909l-.612,5.02-27.1-16.3-1.408,11.231Z" transform="translate(-1355.616 867.931)" fill="#b2b2b2"/>
  <path id="Caminho_1616" data-name="Caminho 1616" d="M965.495-833.147H948.964l4.16-33.959H969.65l-1.419,11.691h5.181l1.445-11.7h16.513c-.1.837-.183,1.642-.281,2.446q-1.192,9.7-2.387,19.39-.721,5.858-1.439,11.717c-.036.3-.117.461-.471.46q-7.958-.019-15.917-.018a.964.964,0,0,1-.194-.067l1.453-11.825h-5.172Z" transform="translate(-906.901 867.403)" fill="#b2b2b2"/>
  <path id="Caminho_1617" data-name="Caminho 1617" d="M1229.463-867.108h16.817l-2.928,23.439h4.451l2.892-23.431h17.086c-.137,1.166-.263,2.293-.4,3.418-.548,4.461-1.111,8.92-1.646,13.382-.88,7.343-4.862,12.59-11.142,16.182a20.686,20.686,0,0,1-9.861,2.46,20.39,20.39,0,0,1-7.37-.707c-5.245-1.825-8.81-5.269-10.015-10.805a21.415,21.415,0,0,1-.008-7.107c.638-5.355,1.323-10.7,1.991-16.055C1229.362-866.586,1229.416-866.836,1229.463-867.108Z" transform="translate(-1140.404 867.398)" fill="#b2b2b2"/>
  <path id="Caminho_1618" data-name="Caminho 1618" d="M687.678-842.522H710.8l.025-.12c-.524-.219-1.046-.442-1.571-.657-4.773-1.946-9.56-3.859-14.315-5.847-2.984-1.247-5.031-3.408-5.45-6.69a9.853,9.853,0,0,1,4.119-9.58,9.957,9.957,0,0,1,6.3-1.92c9.29.023,18.58.01,27.87.01h.771l-.948,7.659h-24.43l-.02.106c1.425.607,2.854,1.207,4.275,1.822q7.482,3.235,14.957,6.488a15.054,15.054,0,0,1,1.723.968c2.4,1.45,3.146,3.7,2.9,6.323a11.256,11.256,0,0,1-6.566,9.685,10.507,10.507,0,0,1-4.606.973q-14.445.034-28.891.024c-.117,0-.234-.019-.4-.033Z" transform="translate(-686.543 867.589)" fill="#b2b2b2"/>
  <path id="Caminho_1619" data-name="Caminho 1619" d="M2037.778-868.918a3.149,3.149,0,0,1,3.17,3.153,3.183,3.183,0,0,1-3.2,3.2,3.253,3.253,0,0,1-3.16-3.2A3.178,3.178,0,0,1,2037.778-868.918Zm-.007,5.908a2.735,2.735,0,0,0,2.771-2.72,2.772,2.772,0,0,0-2.778-2.789,2.79,2.79,0,0,0-2.745,2.767A2.757,2.757,0,0,0,2037.771-863.01Z" transform="translate(-1818.511 868.918)" fill="#b2b2b2"/>
  <path id="Caminho_1620" data-name="Caminho 1620" d="M2046.731-860.733c.56,0,1.019-.011,1.478,0,.556.017,1.126.081,1.307.722.176.624-.159,1.029-.761,1.251l.74,1.553c-.506.18-.8.053-.955-.424-.066-.207-.212-.389-.274-.6-.13-.44-.409-.546-.892-.4v1.468h-.644ZM2047.4-859a12.348,12.348,0,0,0,1.378-.435c.066-.029.049-.537-.037-.574a10.566,10.566,0,0,0-1.341-.4Z" transform="translate(-1828.707 862.048)" fill="#b2b2b2"/>
</svg>